<?xml version="1.0" encoding="UTF-8" standalone="no"?>
<!-- Generator: Adobe Illustrator 15.0.2, SVG Export Plug-In . SVG Version: 6.00 Build 0)  -->

<svg
   xmlns:dc="http://purl.org/dc/elements/1.1/"
   xmlns:cc="http://creativecommons.org/ns#"
   xmlns:rdf="http://www.w3.org/1999/02/22-rdf-syntax-ns#"
   xmlns:svg="http://www.w3.org/2000/svg"
   xmlns="http://www.w3.org/2000/svg"
   xmlns:sodipodi="http://sodipodi.sourceforge.net/DTD/sodipodi-0.dtd"
   xmlns:inkscape="http://www.inkscape.org/namespaces/inkscape"
   version="1.1"
   id="Layer_1"
   x="0px"
   y="0px"
   width="181.33333"
   height="122.00529"
   viewBox="0 0 170.00001 114.37997"
   enable-background="new 0 0 363 227"
   xml:space="preserve"
   inkscape:version="0.92.0 r15299"
   sodipodi:docname="logo_mapbender3.svg"
   inkscape:export-filename="D:\logo.png"
   inkscape:export-xdpi="90"
   inkscape:export-ydpi="90"><metadata
     id="metadata3108"><rdf:RDF><cc:Work
         rdf:about=""><dc:format>image/svg+xml</dc:format><dc:type
           rdf:resource="http://purl.org/dc/dcmitype/StillImage" /><dc:title /></cc:Work></rdf:RDF></metadata><defs
     id="defs3106" /><sodipodi:namedview
     pagecolor="#ffffff"
     bordercolor="#666666"
     borderopacity="1"
     objecttolerance="10"
     gridtolerance="10"
     guidetolerance="10"
     inkscape:pageopacity="0"
     inkscape:pageshadow="2"
     inkscape:window-width="1920"
     inkscape:window-height="1178"
     id="namedview3104"
     showgrid="false"
     fit-margin-top="0"
     fit-margin-left="0"
     fit-margin-right="0"
     fit-margin-bottom="0"
     inkscape:zoom="8.1799734"
     inkscape:cx="90.666664"
     inkscape:cy="61.002644"
     inkscape:window-x="-8"
     inkscape:window-y="-8"
     inkscape:window-maximized="1"
     inkscape:current-layer="Layer_1"
     showguides="true"
     inkscape:guide-bbox="true"
     units="mm" /><g
     id="g3118"
     transform="matrix(0.39974244,0,0,0.39974244,4.3806118e-6,90.219852)"><g
       id="g3780"
       transform="matrix(0.4979174,0,0,0.4979174,341.34871,-9.6375576)"><path
         inkscape:connector-curvature="0"
         id="path3763"
         d="m -110.38831,60.366902 c 0,32.70706 -26.29294,58.968748 -59,58.968748 v 21 c 44.0584,0 79.968747,-35.91036 79.968747,-79.968748 z"
         style="color:#000000;font-style:normal;font-variant:normal;font-weight:normal;font-stretch:normal;font-size:medium;line-height:normal;font-family:Sans;-inkscape-font-specification:Sans;text-indent:0;text-align:start;text-decoration:none;text-decoration-line:none;letter-spacing:normal;word-spacing:normal;text-transform:none;writing-mode:lr-tb;direction:ltr;baseline-shift:baseline;text-anchor:start;display:inline;overflow:visible;visibility:visible;fill:#d81920;fill-opacity:1;stroke:none;stroke-width:10.2255764;marker:none;enable-background:accumulate" /><circle
         r="33.834629"
         cy="35.314476"
         cx="-189.09799"
         transform="matrix(1.2117764,0,0,1.2117764,59.742099,17.562492)"
         id="path2993"
         style="fill:#006cb7;fill-opacity:1;stroke:none" /></g><g
       transform="matrix(4.3384322,0,0,4.3384322,-97.204797,-1209.6785)"
       id="text3018"
       style="font-style:normal;font-variant:normal;font-weight:bold;font-stretch:normal;font-size:12px;line-height:125%;font-family:Verdana;-inkscape-font-specification:'Verdana Bold';letter-spacing:0px;word-spacing:0px;fill:#000000;fill-opacity:1;stroke:none"><path
         style="fill:#000000;fill-opacity:1"
         inkscape:connector-curvature="0"
         id="path3023"
         d="m 30.632072,289.8475 c -0.390633,0.15235 -0.908211,0.30371 -1.552734,0.45411 -0.644538,0.15039 -1.287116,0.22558 -1.927735,0.22558 -1.484379,0 -2.646487,-0.40332 -3.486328,-1.20996 -0.839845,-0.80664 -1.259766,-1.9209 -1.259765,-3.34277 -1e-6,-1.35547 0.423827,-2.44824 1.271484,-3.27832 0.847653,-0.83007 2.029293,-1.24511 3.544922,-1.24512 0.574213,10e-6 1.121087,0.0518 1.640625,0.15527 0.519524,0.10353 1.097648,0.30958 1.734375,0.61817 v 2.04492 h -0.251953 c -0.109384,-0.082 -0.26954,-0.19824 -0.480469,-0.34863 -0.210945,-0.15039 -0.41407,-0.27832 -0.609375,-0.38379 -0.22657,-0.125 -0.491218,-0.23242 -0.793945,-0.32227 -0.302741,-0.0898 -0.62403,-0.13476 -0.963868,-0.13476 -0.398442,0 -0.75977,0.0586 -1.083984,0.17578 -0.324223,0.11719 -0.615238,0.29688 -0.873047,0.53906 -0.246097,0.23438 -0.440433,0.53223 -0.583008,0.89355 -0.142581,0.36134 -0.21387,0.77833 -0.213867,1.25098 -3e-6,0.96485 0.255856,1.70313 0.767578,2.21484 0.511715,0.51172 1.267573,0.76758 2.267578,0.76758 0.08593,0 0.180658,-0.002 0.28418,-0.006 0.103509,-0.004 0.198236,-0.01 0.28418,-0.0176 v -1.71093 h -1.740235 v -1.64649 h 4.025391 z" /><path
         style="fill:#000000;fill-opacity:1"
         inkscape:connector-curvature="0"
         id="path3025"
         d="m 39.005119,287.44516 h -4.828125 c 0.03125,0.51563 0.227536,0.91016 0.588867,1.18359 0.361325,0.27344 0.893551,0.41016 1.59668,0.41016 0.445307,0 0.876947,-0.0801 1.294922,-0.24023 0.417962,-0.16016 0.74804,-0.33203 0.990234,-0.51563 h 0.234375 v 1.69336 c -0.476569,0.19141 -0.925788,0.33008 -1.347656,0.41602 -0.421881,0.0859 -0.888677,0.1289 -1.400391,0.1289 -1.320316,0 -2.332033,-0.29687 -3.035156,-0.89062 -0.703126,-0.59375 -1.054688,-1.43945 -1.054688,-2.53711 0,-1.08594 0.333007,-1.94629 0.999024,-2.58106 0.666013,-0.63476 1.579098,-0.95214 2.739258,-0.95215 1.070307,1e-5 1.874994,0.27052 2.414062,0.81153 0.539056,0.54102 0.808586,1.31934 0.808594,2.33496 z m -2.097656,-1.23633 c -0.01172,-0.4414 -0.121099,-0.77343 -0.328125,-0.99609 -0.207036,-0.22265 -0.529302,-0.33398 -0.966797,-0.33399 -0.406254,10e-6 -0.740238,0.10548 -1.001953,0.31641 -0.261722,0.21094 -0.408206,0.54883 -0.439453,1.01367 z" /><path
         style="fill:#000000;fill-opacity:1"
         inkscape:connector-curvature="0"
         id="path3027"
         d="m 47.219963,287.05844 c -8e-6,1.08203 -0.315437,1.93457 -0.946289,2.55762 -0.630866,0.62305 -1.516607,0.93457 -2.657227,0.93457 -1.140628,0 -2.026369,-0.31152 -2.657226,-0.93457 -0.630861,-0.62305 -0.94629,-1.47559 -0.94629,-2.55762 0,-1.08984 0.317382,-1.94531 0.952149,-2.56641 0.634763,-0.62108 1.518552,-0.93163 2.651367,-0.93164 1.148432,1e-5 2.036127,0.31251 2.663086,0.9375 0.626946,0.62501 0.940422,1.47852 0.94043,2.56055 z m -2.595703,1.59961 c 0.136713,-0.16797 0.239252,-0.37011 0.307617,-0.60644 0.06835,-0.23633 0.102533,-0.56348 0.102539,-0.98145 -6e-6,-0.38672 -0.03516,-0.71093 -0.105469,-0.97266 -0.07032,-0.26171 -0.167974,-0.47069 -0.292969,-0.62695 -0.125005,-0.16015 -0.275395,-0.27343 -0.451172,-0.33984 -0.175785,-0.0664 -0.365238,-0.0996 -0.568359,-0.0996 -0.203129,0 -0.383793,0.0274 -0.541992,0.082 -0.158207,0.0547 -0.309574,0.16407 -0.454102,0.32812 -0.128909,0.15235 -0.231448,0.36134 -0.307617,0.62696 -0.07617,0.26563 -0.11426,0.59961 -0.114258,1.00195 -2e-6,0.35938 0.0332,0.6709 0.09961,0.93457 0.0664,0.26367 0.164059,0.47559 0.292968,0.63574 0.124997,0.15235 0.274411,0.26368 0.448243,0.33399 0.173824,0.0703 0.372066,0.10547 0.594726,0.10547 0.191402,0 0.374019,-0.0322 0.547852,-0.0967 0.173823,-0.0645 0.321284,-0.17285 0.442383,-0.3252 z" /><path
         style="fill:#000000;fill-opacity:1"
         inkscape:connector-curvature="0"
         id="path3029"
         d="m 55.610588,286.96469 c -8e-6,0.54297 -0.08302,1.03711 -0.249024,1.48242 -0.166023,0.44532 -0.383796,0.8125 -0.65332,1.10157 -0.281257,0.30468 -0.599616,0.53515 -0.955078,0.6914 -0.355475,0.15625 -0.736334,0.23438 -1.142578,0.23438 -0.375005,0 -0.693364,-0.04 -0.955078,-0.12012 -0.261723,-0.0801 -0.529301,-0.19238 -0.802735,-0.33691 v 2.74218 H 48.7434 v -8.99414 h 2.109375 v 0.68555 c 0.324216,-0.25781 0.65527,-0.46679 0.993164,-0.62695 0.337886,-0.16015 0.727535,-0.24023 1.168946,-0.24024 0.820306,1e-5 1.458001,0.30079 1.913086,0.90235 0.45507,0.60156 0.682609,1.42773 0.682617,2.47851 z m -2.173828,0.041 c -6e-6,-0.64062 -0.109381,-1.10547 -0.328125,-1.39453 -0.218756,-0.28906 -0.564458,-0.43359 -1.03711,-0.4336 -0.199223,10e-6 -0.404301,0.0303 -0.615234,0.0908 -0.210941,0.0606 -0.412113,0.14747 -0.603516,0.26074 v 3.31055 c 0.140622,0.0547 0.291012,0.0898 0.451172,0.10547 0.160153,0.0156 0.318356,0.0234 0.474609,0.0234 0.55859,0 0.974605,-0.16309 1.248047,-0.48926 0.273432,-0.32617 0.410151,-0.81738 0.410157,-1.47363 z" /><path
         style="fill:#000000;fill-opacity:1"
         inkscape:connector-curvature="0"
         id="path3031"
         d="m 63.860588,287.05844 c -8e-6,1.08203 -0.315437,1.93457 -0.946289,2.55762 -0.630866,0.62305 -1.516607,0.93457 -2.657227,0.93457 -1.140628,0 -2.026369,-0.31152 -2.657226,-0.93457 -0.630861,-0.62305 -0.94629,-1.47559 -0.94629,-2.55762 0,-1.08984 0.317382,-1.94531 0.952149,-2.56641 0.634763,-0.62108 1.518552,-0.93163 2.651367,-0.93164 1.148432,1e-5 2.036127,0.31251 2.663086,0.9375 0.626946,0.62501 0.940422,1.47852 0.94043,2.56055 z m -2.595703,1.59961 c 0.136713,-0.16797 0.239252,-0.37011 0.307617,-0.60644 0.06835,-0.23633 0.102533,-0.56348 0.102539,-0.98145 -6e-6,-0.38672 -0.03516,-0.71093 -0.105469,-0.97266 -0.07032,-0.26171 -0.167974,-0.47069 -0.292969,-0.62695 -0.125005,-0.16015 -0.275395,-0.27343 -0.451172,-0.33984 -0.175785,-0.0664 -0.365238,-0.0996 -0.568359,-0.0996 -0.203129,0 -0.383793,0.0274 -0.541992,0.082 -0.158207,0.0547 -0.309574,0.16407 -0.454102,0.32812 -0.128909,0.15235 -0.231448,0.36134 -0.307617,0.62696 -0.07617,0.26563 -0.11426,0.59961 -0.114258,1.00195 -2e-6,0.35938 0.0332,0.6709 0.09961,0.93457 0.0664,0.26367 0.164059,0.47559 0.292968,0.63574 0.124997,0.15235 0.274411,0.26368 0.448243,0.33399 0.173824,0.0703 0.372066,0.10547 0.594726,0.10547 0.191402,0 0.374019,-0.0322 0.547852,-0.0967 0.173823,-0.0645 0.321284,-0.17285 0.442383,-0.3252 z" /><path
         style="fill:#000000;fill-opacity:1"
         inkscape:connector-curvature="0"
         id="path3033"
         d="m 70.153556,285.77524 h -0.1875 c -0.08985,-0.0312 -0.23438,-0.0547 -0.433593,-0.0703 -0.199224,-0.0156 -0.365239,-0.0234 -0.498047,-0.0234 -0.300786,0 -0.56641,0.0195 -0.796875,0.0586 -0.230473,0.0391 -0.478519,0.10548 -0.744141,0.19922 v 4.40625 h -2.109375 v -6.58008 H 67.4934 v 0.9668 c 0.46484,-0.39843 0.869137,-0.66308 1.212891,-0.79395 0.343745,-0.13085 0.660151,-0.19628 0.949219,-0.19629 0.07421,10e-6 0.158197,0.002 0.251953,0.006 0.09374,0.004 0.175775,0.01 0.246093,0.0176 z" /><path
         style="fill:#000000;fill-opacity:1"
         inkscape:connector-curvature="0"
         id="path3035"
         d="m 75.567619,290.28696 c -0.226568,0.0586 -0.466802,0.10449 -0.720703,0.13769 -0.253911,0.0332 -0.564457,0.0498 -0.931641,0.0498 -0.820315,0 -1.430666,-0.16602 -1.831054,-0.49805 -0.400392,-0.33203 -0.600588,-0.90039 -0.600586,-1.70508 v -3.07617 h -0.867188 v -1.42969 h 0.867188 v -1.88086 h 2.109375 v 1.88086 h 1.974609 v 1.42969 H 73.59301 v 2.33203 c -4e-6,0.23047 0.0019,0.43164 0.0059,0.60352 0.0039,0.17187 0.03515,0.32617 0.09375,0.46289 0.05468,0.13672 0.151364,0.24512 0.290039,0.32519 0.138668,0.0801 0.340816,0.12012 0.606445,0.12012 0.109371,0 0.252926,-0.0234 0.430664,-0.0703 0.17773,-0.0469 0.301753,-0.0898 0.372071,-0.12891 h 0.175781 z" /><path
         style="fill:#000000;fill-opacity:1"
         inkscape:connector-curvature="0"
         id="path3039"
         d="M 100.31506,290.34555 H 98.065056 V 286.5018 H 94.74279 v 3.84375 h -2.25 v -8.72461 h 2.25 v 3.19336 h 3.322266 v -3.19336 h 2.250004 z" /><path
         style="fill:#000000;fill-opacity:1"
         inkscape:connector-curvature="0"
         id="path3041"
         d="m 107.44006,284.29282 c -1e-5,-0.21875 -0.0449,-0.40625 -0.13477,-0.5625 -0.0898,-0.15625 -0.24415,-0.27929 -0.46289,-0.36914 -0.15235,-0.0625 -0.33008,-0.10058 -0.5332,-0.11426 -0.20313,-0.0137 -0.43946,-0.0205 -0.70899,-0.0205 h -0.81445 v 2.34961 h 0.69141 c 0.35937,0 0.66015,-0.0176 0.90234,-0.0527 0.24218,-0.0351 0.44531,-0.11522 0.60937,-0.24023 0.15625,-0.12109 0.27051,-0.25488 0.34278,-0.40137 0.0723,-0.14648 0.10839,-0.34276 0.1084,-0.58886 z m 3.50976,6.05273 h -2.74805 l -2.3789,-3.19922 h -1.03711 v 3.19922 h -2.23828 v -8.72461 h 3.77344 c 0.51561,10e-6 0.95897,0.0293 1.33007,0.0879 0.37109,0.0586 0.71875,0.18556 1.04297,0.38086 0.32812,0.19532 0.58886,0.44825 0.78223,0.75879 0.19335,0.31055 0.29003,0.7002 0.29004,1.16895 -10e-6,0.64453 -0.14942,1.16992 -0.44824,1.57617 -0.29884,0.40625 -0.7256,0.74414 -1.28028,1.01367 z" /><path
         style="fill:#000000;fill-opacity:1"
         inkscape:connector-curvature="0"
         id="path3043"
         d="m 120.43029,285.98618 c -1e-5,1.39062 -0.39845,2.49511 -1.19531,3.31347 -0.79688,0.81836 -1.89845,1.22754 -3.30469,1.22754 -1.40235,0 -2.50196,-0.40918 -3.29883,-1.22754 -0.79687,-0.81836 -1.19531,-1.92285 -1.19531,-3.31347 0,-1.40234 0.39844,-2.51074 1.19531,-3.3252 0.79687,-0.81444 1.89648,-1.22167 3.29883,-1.22168 1.39843,10e-6 2.49804,0.40724 3.29883,1.22168 0.80077,0.81446 1.20116,1.92286 1.20117,3.3252 z m -2.98242,2.20898 c 0.21874,-0.26562 0.38085,-0.5791 0.48633,-0.94043 0.10546,-0.36132 0.15819,-0.78613 0.1582,-1.27441 -1e-5,-0.52344 -0.0605,-0.96875 -0.18164,-1.33594 -0.1211,-0.36718 -0.2793,-0.66406 -0.47461,-0.89063 -0.19923,-0.23436 -0.42872,-0.40429 -0.68848,-0.50976 -0.25977,-0.10546 -0.53028,-0.1582 -0.81152,-0.15821 -0.28516,10e-6 -0.55372,0.0508 -0.80566,0.15235 -0.25196,0.10157 -0.48341,0.26954 -0.69434,0.5039 -0.19532,0.21876 -0.3545,0.52052 -0.47754,0.90528 -0.12305,0.38477 -0.18457,0.83106 -0.18457,1.33887 0,0.51953 0.0596,0.96191 0.17871,1.32714 0.11914,0.36524 0.27636,0.66309 0.47168,0.89356 0.19531,0.23047 0.42382,0.40039 0.68555,0.50976 0.26171,0.10938 0.5371,0.16407 0.82617,0.16407 0.28906,0 0.56445,-0.0557 0.82617,-0.167 0.26171,-0.11132 0.49023,-0.28417 0.68555,-0.51855 z" /></g></g><g
     id="g197"
     transform="matrix(0.89362955,0,0,0.89362955,-87.451494,15.348605)"><path
       inkscape:connector-curvature="0"
       d="m 187.44937,-17.175278 v 50.93086 h -50.36954 c 46.9336,-13.072262 50.36954,-50.93086 50.36954,-50.93086"
       style="fill:#006cb7;fill-opacity:1;fill-rule:nonzero;stroke:none;stroke-width:1.17187512"
       id="path22" /><path
       inkscape:connector-curvature="0"
       d="m 197.39648,-17.175278 v 50.93086 h 50.36953 c -46.9336,-13.072262 -50.36953,-50.93086 -50.36953,-50.93086"
       style="fill:#d81920;fill-opacity:1;fill-rule:nonzero;stroke:none;stroke-width:1.17187512"
       id="path30" /><g
       transform="matrix(1.1718751,0,0,-1.1718751,189.07323,17.368671)"
       id="g36"><path
         id="path38"
         style="fill:#fbc707;fill-opacity:1;fill-rule:nonzero;stroke:none"
         d="M 0,0 C 1.242,0.225 2.336,0.819 2.336,0.819 2.582,0.943 3.801,1.042 4.57,0.596 4.447,0.1 2.732,-0.124 2.285,-0.074 1.564,-0.198 0.77,-1.02 0,0"
         inkscape:connector-curvature="0" /></g><g
       transform="matrix(1.1718751,0,0,-1.1718751,189.07323,17.368671)"
       id="g40"><path
         id="path42"
         style="fill:none;stroke:#ffffff;stroke-width:0.133;stroke-linecap:butt;stroke-linejoin:round;stroke-miterlimit:3.86400008;stroke-dasharray:none;stroke-opacity:1"
         d="M 0,0 C 1.242,0.225 2.336,0.819 2.336,0.819 2.582,0.943 3.801,1.042 4.57,0.596 4.447,0.1 2.732,-0.124 2.285,-0.074 1.564,-0.198 0.77,-1.02 0,0 Z"
         inkscape:connector-curvature="0" /></g><g
       transform="matrix(1.1718751,0,0,-1.1718751,191.19948,19.348554)"
       id="g44"><path
         id="path46"
         style="fill:#fbc707;fill-opacity:1;fill-rule:nonzero;stroke:none"
         d="M 0,0 C 1.414,-0.247 2.109,0.398 2.109,0.398 2.953,1.218 4.221,0.746 4.221,0.746 4.295,0.448 2.383,-0.297 2.383,-0.297 2.383,-0.297 0.547,-1.143 0,0"
         inkscape:connector-curvature="0" /></g><g
       transform="matrix(1.1718751,0,0,-1.1718751,191.19948,19.348554)"
       id="g48"><path
         id="path50"
         style="fill:none;stroke:#ffffff;stroke-width:0.133;stroke-linecap:butt;stroke-linejoin:round;stroke-miterlimit:3.86400008;stroke-dasharray:none;stroke-opacity:1"
         d="M 0,0 C 1.414,-0.247 2.109,0.398 2.109,0.398 2.953,1.218 4.221,0.746 4.221,0.746 4.295,0.448 2.383,-0.297 2.383,-0.297 2.383,-0.297 0.547,-1.143 0,0 Z"
         inkscape:connector-curvature="0" /></g><path
       inkscape:connector-curvature="0"
       d="m 185.00143,16.639764 c 0,0 -2.65078,-0.492187 -3.23203,1.078126 -0.37734,1.803515 0.64102,1.307812 0.5543,0.728906 3.81094,-0.728906 4.39453,2.18086 4.39453,2.18086 0.11367,0.990234 -4.30781,0.467578 -4.30781,0.467578 -0.11719,1.307812 4.74257,0.870703 4.74257,0.870703 0,0 -1.83398,3.930469 -5.44101,3.698438 -6.16992,-1.196485 -7.0125,-4.890235 -7.0125,-4.890235 -0.20391,-0.290625 1.19297,-2.473828 0.98672,-3.377344 -0.19922,-1.541016 -1.59844,-1.163672 -1.7168,-0.959766 -0.0844,0.466406 0.96094,0.08672 0.67266,0.959766 -0.5836,0.903516 -0.5543,1.775391 -0.5543,2.328516 -0.17578,1.078125 -1.0207,0.407812 -1.1918,0.203906 0,0 -1.39804,-1.279688 -1.10742,-2.560547 0.11602,-1.657032 -1.60078,-1.308985 -1.54336,-1.07461 -0.11367,0.142969 1.04883,0.521485 0.46758,2.412891 0.0269,0.611719 1.30898,1.600782 1.30898,1.600782 0.69844,1.046484 -1.19297,1.25039 -1.30898,1.019531 -1.45664,-0.757031 -1.95,-0.290625 -1.97813,-0.05859 1.42618,0.260156 1.13321,1.36875 1.45313,1.482422 0.32109,0.263672 2.29805,-1.627734 3.95508,-0.639844 0.61406,0.611719 -1.07578,1.979298 -0.98555,2.183204 0.11367,0.290625 2.26992,-0.610547 2.26992,-0.610547 0.9293,-0.05977 3.31641,3.405469 3.31641,3.405469 0,0 0.52148,0.580078 0.0281,1.194141 -4.88672,4.160156 -5.32383,0.726562 -5.93555,0.9 -0.17344,0.261328 -0.40898,2.328516 2.53125,1.979297 -3.11484,0.785156 -3.49219,-1.28086 -3.86953,-1.107422 -0.43711,2.125781 1.97695,2.242969 1.97695,2.242969 2.2711,0.232031 4.13321,-0.904688 4.13321,-0.904688 -2.48789,1.926563 -4.74141,0.932813 -4.54102,1.311328 0.0598,0.144141 0.90234,1.627735 3.95977,0.144141 3.11367,-2.124609 3.86836,-0.987891 3.86836,-0.987891 0,0 1.0207,1.105079 -2.8793,3.258985 -3.54961,2.26875 -2.91094,-1.135547 -3.25899,-0.727734 -0.29062,0.145312 -0.7875,4.248047 -3.20273,1.802344 -0.46641,-0.669141 -1.74609,-3.257813 -2.76445,-1.423829 -0.0551,0.232032 0.4664,-0.494531 0.96093,-0.119531 0.11719,1.809375 1.45664,1.925391 1.45664,1.925391 1.42266,0.755859 -0.0879,1.570313 -0.29179,1.512891 -3.60938,0.434765 -2.61797,2.267578 -2.61797,2.267578 0.0844,-0.376172 0.34805,-1.511719 1.27969,-0.697266 1.59961,-1.77539 3.20156,-1.658203 3.20156,-1.658203 0.58125,0.201563 0.14414,1.367578 -0.20508,1.686328 -4.13203,2.38711 -1.39687,2.735157 -1.39687,2.735157 -0.34805,-0.114844 -0.55196,-1.600782 0.66797,-0.929297 2.44453,-3.696094 4.10625,-4.33711 4.10625,-4.33711 3.05625,-1.63125 4.0125,1.046485 2.26875,1.572656 0.7875,0.202735 1.94765,-1.047656 1.94765,-1.047656 0,0 0.0598,0.553125 -1.45078,1.658203 1.10274,-0.145312 2.52891,-1.455468 2.52891,-1.455468 0,0 -0.0574,0.522656 -1.01836,1.484765 1.71679,-0.61289 2.12344,-1.398047 2.12344,-1.398047 0,0 -0.29063,0.990235 -0.69493,1.429688 1.97696,-0.410156 3.02344,-3.116016 3.02344,-3.116016 0,0 1.16485,1.889063 5.96367,0.522656 3.61172,-1.047656 5.12344,-0.7875 5.12344,-0.7875 0,0 -2.55937,0.264844 -2.32851,3.145313 -0.0551,1.657031 -2.26758,2.736328 -2.26758,2.736328 -1.86094,0.75586 -2.18438,-1.079297 -2.18438,-1.079297 -0.0562,-1.395703 -1.77304,-0.434765 -1.77304,-0.434765 0,0 1.21992,-0.116016 1.24921,0.202734 -0.72773,0.75586 0.75821,1.573828 0.49688,1.717969 -1.74609,-1.920703 -2.91094,-0.987891 -2.91094,-0.987891 1.04766,-0.146484 1.07695,1.307813 1.97695,1.395704 0.67032,0.291797 2.06719,-0.02812 2.06719,-0.02812 0,0 -0.60937,0.871875 -2.27109,0.434765 -2.58867,-1.251562 -1.97695,0.960938 -1.97695,0.960938 0.2625,-1.251563 1.13437,-0.585938 1.13437,-0.585938 0.34805,0.352735 -0.26016,0.936329 1.36758,1.195313 2.00625,0.379688 3.43476,-1.250391 3.43476,-1.250391 1.30899,-1.163672 3.6668,-1.278516 3.6668,-1.278516 0.66797,-0.292968 0.34805,-4.628906 4.91836,-4.600781 0.69844,0.03169 0.37852,2.996484 5.76094,3.289453 3.60703,-0.61289 3.46289,0.232031 3.46289,0.232031 0.49453,1.194141 -2.29805,1.164844 -2.29805,1.164844 l 1.04883,0.321094 c 0,0 -1.575,0 -1.48594,1.426172 0.43711,-0.7875 1.80352,-0.847266 1.80352,-0.847266 0,0 -0.96094,0.322266 -0.72773,0.993751 0.61171,-0.438282 1.31015,-0.467579 1.31015,-0.467579 0,0 -0.75586,0.467579 -0.78515,0.671485 0.87421,0.404297 2.06367,-0.146485 2.06367,-0.146485 0,0 3.29179,-2.008594 1.80586,-3.610547 -0.58125,-0.930469 -0.31992,-1.6875 -0.60821,-1.803516 -0.55664,-0.05747 -5.85,0 -6.11367,-2.385937 5.44102,1.948828 7.21641,-1.047657 7.21641,-1.047657 0.58359,-0.378515 1.7168,-6.228516 -3.08555,-5.092969 -6.9832,2.269922 -6.16758,-0.493359 -6.16758,-0.493359 0.52149,-2.620313 5.26641,-0.960938 5.26641,-0.960938 4.36641,2.300391 5.73398,-0.05747 5.79023,-0.435938 0.38086,-0.932812 -0.46406,-3.464062 1.01836,-5.152734 -0.46171,-0.233204 -4.07109,-1.919532 -5.38007,0.40664 -0.81797,1.078125 0,2.155079 0,2.155079 1.71445,2.443359 0.25781,2.240625 0.0867,2.153906 -0.3211,-0.08789 -3.34922,-1.222266 -5.26875,-0.583594 -4.33477,1.485938 -2.70586,4.802344 -0.99141,4.95586 1.25391,0.54375 5.20898,-0.561328 5.20898,-0.561328 3.37618,-0.551953 2.18438,2.823047 2.04024,2.79375 -1.63008,1.600782 -5.79141,-0.02812 -5.93789,-0.261328 -0.46407,-0.230859 -4.07344,-2.707031 -8.00391,-2.998828 10.33242,-5.876954 12.83555,-8.963673 12.83555,-8.963673 3.66445,-3.809766 3.58008,-7.012501 3.58008,-7.012501 0,0 -1.51289,1.544532 -2.15625,1.572657 0.49453,-0.75586 0.26132,-0.843751 0.26132,-0.843751 0,0 -3.37382,2.940235 -8.93086,3.229688 0.58125,-0.755859 0.4043,-0.901172 0.4043,-0.901172 -0.25781,-0.2625 -2.44453,0.930469 -2.44453,0.930469 0,0 1.77656,-1.219922 1.45664,-1.688672 -0.66914,-0.02812 -1.51289,1.164844 -4.04531,1.485938 1.77656,-0.871875 1.57265,-1.076953 1.57265,-1.076953 0,0 -0.34804,-0.378516 -4.30664,1.628906 -4.86211,2.327344 -2.33086,5.963672 -2.33086,5.963672 0,0 1.08047,2.272266 -0.14414,3.814454 -1.6289,1.658203 -5.17969,0.493359 -3.9,-0.728906 5.09532,-5.003907 1.31133,-9.601173 1.31133,-9.601173 0,0 0.95977,-0.06094 1.33945,-0.205078 0.46407,-0.261329 1.65704,-0.205079 1.77305,-0.611719 0,-0.144141 -0.69726,-0.959766 -3.08437,0.176953 -0.58125,0.229687 -1.21993,-0.350391 -1.21993,-0.350391 0,0 -3.20273,-2.647266 -4.36523,-1.456641"
       style="fill:#ffcb05;fill-opacity:1;fill-rule:evenodd;stroke:none;stroke-width:1.17187512"
       id="path54" /><g
       transform="matrix(1.1718751,0,0,-1.1718751,185.00143,16.639764)"
       id="g56"><path
         id="path58"
         style="fill:none;stroke:#ffffff;stroke-width:0.133;stroke-linecap:butt;stroke-linejoin:round;stroke-miterlimit:3.86400008;stroke-dasharray:none;stroke-opacity:1"
         d="m 0,0 c 0,0 -2.262,0.42 -2.758,-0.92 -0.322,-1.539 0.547,-1.116 0.473,-0.622 3.252,0.622 3.75,-1.861 3.75,-1.861 0.097,-0.845 -3.676,-0.399 -3.676,-0.399 -0.1,-1.116 4.047,-0.743 4.047,-0.743 0,0 -1.565,-3.354 -4.643,-3.156 -5.265,1.021 -5.984,4.173 -5.984,4.173 -0.174,0.248 1.018,2.111 0.842,2.882 -0.17,1.315 -1.364,0.993 -1.465,0.819 -0.072,-0.398 0.82,-0.074 0.574,-0.819 -0.498,-0.771 -0.473,-1.515 -0.473,-1.987 -0.15,-0.92 -0.871,-0.348 -1.017,-0.174 0,0 -1.193,1.092 -0.945,2.185 0.099,1.414 -1.366,1.117 -1.317,0.917 -0.097,-0.122 0.895,-0.445 0.399,-2.059 0.023,-0.522 1.117,-1.366 1.117,-1.366 0.596,-0.893 -1.018,-1.067 -1.117,-0.87 -1.243,0.646 -1.664,0.248 -1.688,0.05 1.217,-0.222 0.967,-1.168 1.24,-1.265 0.274,-0.225 1.961,1.389 3.375,0.546 0.524,-0.522 -0.918,-1.689 -0.841,-1.863 0.097,-0.248 1.937,0.521 1.937,0.521 0.793,0.051 2.83,-2.906 2.83,-2.906 0,0 0.445,-0.495 0.024,-1.019 -4.17,-3.55 -4.543,-0.62 -5.065,-0.768 -0.148,-0.223 -0.349,-1.987 2.16,-1.689 -2.658,-0.67 -2.98,1.093 -3.302,0.945 -0.373,-1.814 1.687,-1.914 1.687,-1.914 1.938,-0.198 3.527,0.772 3.527,0.772 -2.123,-1.644 -4.046,-0.796 -3.875,-1.119 0.051,-0.123 0.77,-1.389 3.379,-0.123 2.657,1.813 3.301,0.843 3.301,0.843 0,0 0.871,-0.943 -2.457,-2.781 -3.029,-1.936 -2.484,0.969 -2.781,0.621 -0.248,-0.124 -0.672,-3.625 -2.733,-1.538 -0.398,0.571 -1.49,2.78 -2.359,1.215 -0.047,-0.198 0.398,0.422 0.82,0.102 0.1,-1.544 1.243,-1.643 1.243,-1.643 1.214,-0.645 -0.075,-1.34 -0.249,-1.291 -3.08,-0.371 -2.234,-1.935 -2.234,-1.935 0.072,0.321 0.297,1.29 1.092,0.595 1.365,1.515 2.732,1.415 2.732,1.415 0.496,-0.172 0.123,-1.167 -0.175,-1.439 -3.526,-2.037 -1.192,-2.334 -1.192,-2.334 -0.297,0.098 -0.471,1.366 0.57,0.793 2.086,3.154 3.504,3.701 3.504,3.701 2.608,1.392 3.424,-0.893 1.936,-1.342 0.672,-0.173 1.662,0.894 1.662,0.894 0,0 0.051,-0.472 -1.238,-1.415 0.941,0.124 2.158,1.242 2.158,1.242 0,0 -0.049,-0.446 -0.869,-1.267 1.465,0.523 1.812,1.193 1.812,1.193 0,0 -0.248,-0.845 -0.593,-1.22 1.687,0.35 2.58,2.659 2.58,2.659 0,0 0.994,-1.612 5.089,-0.446 3.082,0.894 4.372,0.672 4.372,0.672 0,0 -2.184,-0.226 -1.987,-2.684 -0.047,-1.414 -1.935,-2.335 -1.935,-2.335 -1.588,-0.645 -1.864,0.921 -1.864,0.921 -0.048,1.191 -1.513,0.371 -1.513,0.371 0,0 1.041,0.099 1.066,-0.173 -0.621,-0.645 0.647,-1.343 0.424,-1.466 -1.49,1.639 -2.484,0.843 -2.484,0.843 0.894,0.125 0.919,-1.116 1.687,-1.191 0.572,-0.249 1.764,0.024 1.764,0.024 0,0 -0.52,-0.744 -1.938,-0.371 -2.209,1.068 -1.687,-0.82 -1.687,-0.82 0.224,1.068 0.968,0.5 0.968,0.5 0.297,-0.301 -0.222,-0.799 1.167,-1.02 1.712,-0.324 2.931,1.067 2.931,1.067 1.117,0.993 3.129,1.091 3.129,1.091 0.57,0.25 0.297,3.95 4.197,3.926 0.596,-0.027 0.323,-2.557 4.916,-2.807 3.078,0.523 2.955,-0.198 2.955,-0.198 0.422,-1.019 -1.961,-0.994 -1.961,-0.994 l 0.895,-0.274 c 0,0 -1.344,0 -1.268,-1.217 0.373,0.672 1.539,0.723 1.539,0.723 0,0 -0.82,-0.275 -0.621,-0.848 0.522,0.374 1.118,0.399 1.118,0.399 0,0 -0.645,-0.399 -0.67,-0.573 0.746,-0.345 1.761,0.125 1.761,0.125 0,0 2.809,1.714 1.541,3.081 -0.496,0.794 -0.273,1.44 -0.519,1.539 -0.475,0.049 -4.992,0 -5.217,2.036 4.643,-1.663 6.158,0.894 6.158,0.894 0.498,0.323 1.465,5.315 -2.633,4.346 -5.959,-1.937 -5.263,0.421 -5.263,0.421 0.445,2.236 4.494,0.82 4.494,0.82 3.726,-1.963 4.893,0.049 4.941,0.372 0.325,0.796 -0.396,2.956 0.869,4.397 -0.394,0.199 -3.474,1.638 -4.591,-0.347 -0.698,-0.92 0,-1.839 0,-1.839 1.463,-2.085 0.22,-1.912 0.074,-1.838 -0.274,0.075 -2.858,1.043 -4.496,0.498 -3.699,-1.268 -2.309,-4.098 -0.846,-4.229 1.07,-0.464 4.445,0.479 4.445,0.479 2.881,0.471 1.864,-2.409 1.741,-2.384 -1.391,-1.366 -4.942,0.024 -5.067,0.223 -0.396,0.197 -3.476,2.31 -6.83,2.559 8.817,5.015 10.953,7.649 10.953,7.649 3.127,3.251 3.055,5.984 3.055,5.984 0,0 -1.291,-1.318 -1.84,-1.342 0.422,0.645 0.223,0.72 0.223,0.72 0,0 -2.879,-2.509 -7.621,-2.756 0.496,0.645 0.345,0.769 0.345,0.769 -0.22,0.224 -2.086,-0.794 -2.086,-0.794 0,0 1.516,1.041 1.243,1.441 -0.571,0.024 -1.291,-0.994 -3.452,-1.268 1.516,0.744 1.342,0.919 1.342,0.919 0,0 -0.297,0.323 -3.675,-1.39 -4.149,-1.986 -1.989,-5.089 -1.989,-5.089 0,0 0.922,-1.939 -0.123,-3.255 -1.39,-1.415 -4.42,-0.421 -3.328,0.622 4.348,4.27 1.119,8.193 1.119,8.193 0,0 0.819,0.052 1.143,0.175 0.396,0.223 1.414,0.175 1.513,0.522 0,0.123 -0.595,0.819 -2.632,-0.151 C 4.27,-1.738 3.725,-1.243 3.725,-1.243 3.725,-1.243 0.992,1.016 0,0 Z"
         inkscape:connector-curvature="0" /></g><g
       transform="matrix(1.1718751,0,0,-1.1718751,176.96764,17.019686)"
       id="g60"><path
         id="path62"
         style="fill:#d81920;fill-opacity:1;fill-rule:nonzero;stroke:none"
         d="m 0,0 c 0.596,1.142 1.863,0.596 1.887,0.199 0.324,-0.595 0,-2.011 0,-2.011 -0.545,-2.706 1.763,-1.167 1.763,-1.167 1.565,1.638 2.782,0.644 2.782,0.644 l 1.316,-0.894 c 0,0 -2.51,0.822 -3.475,-0.075 -1.89,-2.184 -3.13,-0.644 -3.13,-0.644 -0.721,0.794 0.125,2.483 0.125,2.483 C 1.764,0.373 0,0 0,0"
         inkscape:connector-curvature="0" /></g><path
       inkscape:connector-curvature="0"
       d="m 176.96764,17.019686 c 0.69844,-1.338281 2.18321,-0.698437 2.21133,-0.233203 0.37969,0.697266 0,2.356641 0,2.356641 -0.63867,3.171094 2.06602,1.367578 2.06602,1.367578 1.83398,-1.919531 3.26016,-0.754687 3.26016,-0.754687 l 1.54218,1.047656 c 0,0 -2.94141,-0.963281 -4.07227,0.08789 -2.21484,2.559375 -3.66796,0.754687 -3.66796,0.754687 -0.84493,-0.930468 0.14648,-2.909766 0.14648,-2.909766 0.58125,-2.153906 -1.48594,-1.716797 -1.48594,-1.716796 z"
       style="fill:none;stroke:#ffffff;stroke-width:0.1558594;stroke-linecap:butt;stroke-linejoin:round;stroke-miterlimit:3.86400008;stroke-dasharray:none;stroke-opacity:1"
       id="path66" /><path
       inkscape:connector-curvature="0"
       d="m 128.23533,50.378049 h 0.97617 v 2.824219 h 3.3586 v -2.824219 h 0.97617 v 7.001954 h -0.97617 v -3.47461 h -3.3586 v 3.47461 h -0.97617 z"
       style="fill:#006cb7;fill-opacity:1;fill-rule:nonzero;stroke:none;stroke-width:1.17187512"
       id="path70" /><path
       inkscape:connector-curvature="0"
       d="m 137.41006,54.597503 c -1.15312,0.325781 -1.56328,0.671484 -1.56328,1.333594 0,0.514453 0.30469,0.860156 0.75586,0.860156 0.44062,0 0.91289,-0.387891 1.14375,-0.923438 0.14648,-0.357422 0.20976,-0.724218 0.20976,-1.238672 v -0.178125 z m 0.6832,2.782031 c -0.11601,-0.304687 -0.13711,-0.440625 -0.14765,-0.860156 -0.82852,0.807422 -1.10157,0.976172 -1.63711,0.976172 -0.8086,0 -1.39571,-0.619922 -1.39571,-1.480078 0,-0.651563 0.32461,-1.123829 1.00782,-1.481251 0.31406,-0.155859 0.45,-0.199218 1.2375,-0.440625 l 0.7875,-0.241406 c -0.0727,-0.660937 -0.44063,-1.006641 -1.08047,-1.006641 -0.41953,0 -0.84961,0.178125 -1.28086,0.523829 l -0.34688,-0.440625 c 0.49336,-0.440625 1.08164,-0.660938 1.78477,-0.660938 0.7043,0 1.25977,0.241406 1.56445,0.682031 0.21914,0.315235 0.25196,0.482813 0.25196,1.385157 v 1.449609 c 0,0.902344 0.0305,1.122657 0.21914,1.594922 z"
       style="fill:#006cb7;fill-opacity:1;fill-rule:nonzero;stroke:none;stroke-width:1.17187512"
       id="path74" /><path
       inkscape:connector-curvature="0"
       d="m 140.59029,52.383006 h 0.89297 v 0.630468 c 0.51328,-0.514453 1.04883,-0.746484 1.73086,-0.746484 0.81914,0 1.37578,0.346875 1.5961,0.998438 0.10429,0.304687 0.12539,0.523828 0.12539,1.311328 v 2.803125 h -0.8918 v -2.803125 c 0,-0.651563 -0.0316,-0.870703 -0.18867,-1.133203 -0.18867,-0.336329 -0.525,-0.514454 -0.98672,-0.514454 -0.56719,0 -1.02891,0.273047 -1.23867,0.734766 -0.11602,0.251953 -0.14649,0.482813 -0.14649,1.091016 v 2.625 h -0.89297 z"
       style="fill:#006cb7;fill-opacity:1;fill-rule:nonzero;stroke:none;stroke-width:1.17187512"
       id="path78" /><path
       inkscape:connector-curvature="0"
       d="m 148.94565,53.170393 c -0.2625,-0.199219 -0.58711,-0.304687 -0.91289,-0.304687 -0.43008,0 -0.73477,0.232031 -0.73477,0.55664 0,0.261329 0.13711,0.430079 0.6082,0.766407 1.21758,0.870703 1.48125,1.196484 1.48125,1.846875 0,0.861328 -0.69375,1.458984 -1.68984,1.458984 -0.63047,0 -1.06055,-0.167578 -1.59609,-0.639843 l 0.45117,-0.49336 c 0.41015,0.366797 0.68203,0.503906 1.06055,0.503906 0.51445,0 0.85078,-0.283593 0.85078,-0.724218 0,-0.389063 -0.13711,-0.546094 -0.84024,-1.060547 -0.97617,-0.692579 -1.19648,-0.976172 -1.19648,-1.510547 0,-0.746485 0.68203,-1.303126 1.58437,-1.303126 0.49336,0 0.92344,0.147657 1.29141,0.441797 z"
       style="fill:#006cb7;fill-opacity:1;fill-rule:nonzero;stroke:none;stroke-width:1.17187512"
       id="path82" /><path
       inkscape:connector-curvature="0"
       d="m 153.83799,54.367459 c -0.0223,-0.955078 -0.41015,-1.469531 -1.1543,-1.469531 -0.75703,0 -1.27031,0.55664 -1.34414,1.469531 z m -2.51953,0.576563 c 0.0211,1.164843 0.70312,1.932422 1.70039,1.932422 0.44063,0 0.90234,-0.158204 1.32305,-0.440625 l 0.26133,0.48164 c -0.67149,0.430078 -1.1543,0.588282 -1.7836,0.588282 -1.46953,0 -2.4668,-1.092188 -2.4668,-2.68711 0,-1.501172 0.96563,-2.551172 2.34024,-2.551172 0.88125,0 1.50117,0.430078 1.80469,1.259765 0.13828,0.335157 0.19101,0.745313 0.19101,1.416798 z"
       style="fill:#006cb7;fill-opacity:1;fill-rule:nonzero;stroke:none;stroke-width:1.17187512"
       id="path86" /><path
       id="path88"
       style="fill:#006cb7;fill-opacity:1;fill-rule:nonzero;stroke:none;stroke-width:1.17187512"
       d="m 156.14635,54.618831 h 2.48789 v 0.755859 h -2.48789 z"
       inkscape:connector-curvature="0" /><path
       inkscape:connector-curvature="0"
       d="m 166.76752,57.379534 h -0.89179 v -0.629297 c -0.51446,0.513282 -1.04883,0.745313 -1.73203,0.745313 -0.81915,0 -1.38516,-0.357422 -1.5961,-0.997266 -0.10312,-0.29414 -0.12539,-0.567187 -0.12539,-1.323047 v -2.792578 h 0.89297 v 2.792578 c 0,0.651563 0.0305,0.870703 0.18867,1.144922 0.18867,0.335156 0.525,0.513281 0.98672,0.513281 0.56602,0 1.02891,-0.271875 1.2375,-0.745312 0.11602,-0.250781 0.14766,-0.482813 0.14766,-1.091016 v -2.614453 h 0.89179 z"
       style="fill:#006cb7;fill-opacity:1;fill-rule:nonzero;stroke:none;stroke-width:1.17187512"
       id="path92" /><path
       inkscape:connector-curvature="0"
       d="m 168.51045,52.383006 h 0.89297 v 0.630468 c 0.51328,-0.514453 1.04883,-0.746484 1.73086,-0.746484 0.81914,0 1.37578,0.346875 1.5961,0.998438 0.10429,0.304687 0.12539,0.523828 0.12539,1.311328 v 2.803125 h -0.8918 v -2.803125 c 0,-0.651563 -0.0316,-0.870703 -0.18867,-1.133203 -0.18867,-0.336329 -0.525,-0.514454 -0.98672,-0.514454 -0.56719,0 -1.02891,0.273047 -1.23867,0.734766 -0.11602,0.251953 -0.14649,0.482813 -0.14649,1.091016 v 2.625 h -0.89297 z"
       style="fill:#006cb7;fill-opacity:1;fill-rule:nonzero;stroke:none;stroke-width:1.17187512"
       id="path96" /><path
       inkscape:connector-curvature="0"
       d="m 175.09194,54.787459 c 0,1.258594 0.58828,2.077735 1.49062,2.077735 0.93399,0 1.56329,-0.839063 1.56329,-2.077735 0,-1.123828 -0.61875,-1.889063 -1.5211,-1.889063 -0.96562,0 -1.53281,0.701953 -1.53281,1.889063 m 3.91523,-4.755469 v 7.347657 h -0.8707 v -0.7875 c -0.50391,0.61875 -1.05,0.903515 -1.75195,0.903515 -1.32305,0 -2.25703,-1.072265 -2.25703,-2.603906 0,-1.522266 1.01718,-2.623829 2.41289,-2.623829 0.70429,0 1.16484,0.209766 1.59609,0.745313 v -2.98125 z"
       style="fill:#006cb7;fill-opacity:1;fill-rule:nonzero;stroke:none;stroke-width:1.17187512"
       id="path100" /><path
       inkscape:connector-curvature="0"
       d="m 184.43495,50.378049 v 3.904688 c 0,1.113281 0.0833,1.511719 0.38789,1.911328 0.29414,0.387891 0.7664,0.597657 1.35351,0.597657 0.76758,0 1.34414,-0.345703 1.60547,-0.976172 0.14766,-0.345703 0.16875,-0.577735 0.16875,-1.54336 v -3.894141 h 0.91289 v 3.967969 c 0,1.259766 -0.10547,1.700391 -0.55547,2.246485 -0.5039,0.597656 -1.22812,0.902344 -2.17382,0.902344 -1.10157,0 -1.94063,-0.430078 -2.36016,-1.196485 -0.25195,-0.461719 -0.31523,-0.870703 -0.31523,-2.036719 v -3.883594 z"
       style="fill:#006cb7;fill-opacity:1;fill-rule:nonzero;stroke:none;stroke-width:1.17187512"
       id="path104" /><path
       inkscape:connector-curvature="0"
       d="m 190.53234,52.383006 h 0.89296 v 0.630468 c 0.51329,-0.514453 1.04883,-0.746484 1.73086,-0.746484 0.81914,0 1.37579,0.346875 1.5961,0.998438 0.10429,0.304687 0.12539,0.523828 0.12539,1.311328 v 2.803125 h -0.8918 v -2.803125 c 0,-0.651563 -0.0316,-0.870703 -0.18867,-1.133203 -0.18867,-0.336329 -0.525,-0.514454 -0.98672,-0.514454 -0.56719,0 -1.02891,0.273047 -1.23867,0.734766 -0.11602,0.251953 -0.14649,0.482813 -0.14649,1.091016 v 2.625 h -0.89296 z"
       style="fill:#006cb7;fill-opacity:1;fill-rule:nonzero;stroke:none;stroke-width:1.17187512"
       id="path108" /><path
       id="path110"
       style="fill:#006cb7;fill-opacity:1;fill-rule:nonzero;stroke:none;stroke-width:1.17187512"
       d="m 196.55729,52.382893 h 0.89297 v 4.996876 h -0.89297 z m 1.01836,-1.605469 c 0,0.32461 -0.25078,0.576563 -0.57773,0.576563 -0.31406,0 -0.56602,-0.241407 -0.56602,-0.555469 0,-0.357422 0.23086,-0.587109 0.57774,-0.587109 0.32461,0 0.56601,0.241406 0.56601,0.566015"
       inkscape:connector-curvature="0" /><path
       inkscape:connector-curvature="0"
       d="m 198.46768,52.540974 0.87188,-0.241406 1.56328,3.873047 1.59492,-3.873047 0.75703,0.16875 -2.14101,4.911329 h -0.56836 z"
       style="fill:#006cb7;fill-opacity:1;fill-rule:nonzero;stroke:none;stroke-width:1.17187512"
       id="path114" /><path
       inkscape:connector-curvature="0"
       d="m 207.34827,54.367459 c -0.0223,-0.955078 -0.41015,-1.469531 -1.15429,-1.469531 -0.75703,0 -1.27031,0.55664 -1.34414,1.469531 z m -2.51953,0.576563 c 0.0211,1.164843 0.70313,1.932422 1.70039,1.932422 0.44063,0 0.90235,-0.158204 1.32305,-0.440625 l 0.26133,0.48164 c -0.67149,0.430078 -1.1543,0.588282 -1.78359,0.588282 -1.46954,0 -2.4668,-1.092188 -2.4668,-2.68711 0,-1.501172 0.96562,-2.551172 2.34023,-2.551172 0.88125,0 1.50117,0.430078 1.80469,1.259765 0.13828,0.335157 0.19102,0.745313 0.19102,1.416798 z"
       style="fill:#006cb7;fill-opacity:1;fill-rule:nonzero;stroke:none;stroke-width:1.17187512"
       id="path118" /><path
       inkscape:connector-curvature="0"
       d="m 209.54097,52.383006 h 0.89296 v 0.757031 l 0.21915,-0.274219 c 0.38906,-0.493359 0.53554,-0.598828 0.81914,-0.598828 0.28476,0 0.55664,0.147656 0.89296,0.493359 l -0.41953,0.56836 c -0.28359,-0.138281 -0.47343,-0.188672 -0.6832,-0.188672 -0.30469,0 -0.55664,0.208594 -0.69258,0.566016 -0.10547,0.282422 -0.13594,0.587109 -0.13594,1.258594 v 2.415234 h -0.89296 z"
       style="fill:#006cb7;fill-opacity:1;fill-rule:nonzero;stroke:none;stroke-width:1.17187512"
       id="path122" /><path
       inkscape:connector-curvature="0"
       d="m 215.45073,53.170393 c -0.2625,-0.199219 -0.58711,-0.304687 -0.91289,-0.304687 -0.43008,0 -0.73476,0.232031 -0.73476,0.55664 0,0.261329 0.1371,0.430079 0.6082,0.766407 1.21758,0.870703 1.48125,1.196484 1.48125,1.846875 0,0.861328 -0.69375,1.458984 -1.68985,1.458984 -0.63046,0 -1.06054,-0.167578 -1.59609,-0.639843 l 0.45117,-0.49336 c 0.41016,0.366797 0.68203,0.503906 1.06055,0.503906 0.51445,0 0.85078,-0.283593 0.85078,-0.724218 0,-0.389063 -0.13711,-0.546094 -0.84023,-1.060547 -0.97618,-0.692579 -1.19649,-0.976172 -1.19649,-1.510547 0,-0.746485 0.68203,-1.303126 1.58438,-1.303126 0.49336,0 0.92344,0.147657 1.2914,0.441797 z"
       style="fill:#006cb7;fill-opacity:1;fill-rule:nonzero;stroke:none;stroke-width:1.17187512"
       id="path126" /><path
       id="path128"
       style="fill:#006cb7;fill-opacity:1;fill-rule:nonzero;stroke:none;stroke-width:1.17187512"
       d="m 217.26667,52.382893 h 0.89297 v 4.996876 h -0.89297 z m 1.01836,-1.605469 c 0,0.32461 -0.25195,0.576563 -0.57774,0.576563 -0.31406,0 -0.56601,-0.241407 -0.56601,-0.555469 0,-0.357422 0.23086,-0.587109 0.57773,-0.587109 0.32461,0 0.56602,0.241406 0.56602,0.566015"
       inkscape:connector-curvature="0" /><path
       inkscape:connector-curvature="0"
       d="m 219.31428,52.383006 h 0.69258 v -1.207032 l 0.89297,-0.292969 v 1.500001 h 1.31133 v 0.525 h -1.31133 v 2.634375 c 0,1.018359 0.16641,1.323047 0.7125,1.323047 0.24141,0 0.45234,-0.05278 0.67148,-0.178125 l 0.22149,0.493359 c -0.35742,0.219141 -0.7043,0.314063 -1.09219,0.314063 -0.51328,0 -0.93398,-0.209766 -1.18594,-0.588281 -0.17812,-0.271875 -0.22031,-0.513282 -0.22031,-1.300782 v -2.697656 h -0.69258 z"
       style="fill:#006cb7;fill-opacity:1;fill-rule:nonzero;stroke:none;stroke-width:1.17187512"
       id="path132" /><path
       inkscape:connector-curvature="0"
       d="m 226.5778,51.039568 c 0,0.304688 -0.23086,0.535547 -0.53555,0.535547 -0.28242,0 -0.52383,-0.241406 -0.52383,-0.535547 0,-0.282422 0.24141,-0.523828 0.53438,-0.523828 0.29414,0 0.525,0.229687 0.525,0.523828 m -1.19649,3.557813 c -1.15429,0.325781 -1.56328,0.671484 -1.56328,1.333594 0,0.514453 0.30352,0.860156 0.75469,0.860156 0.44063,0 0.91289,-0.387891 1.14492,-0.923438 0.14649,-0.357421 0.2086,-0.724218 0.2086,-1.238672 v -0.178125 z m -0.79804,-3.557813 c 0,0.304688 -0.22969,0.535547 -0.53438,0.535547 -0.28359,0 -0.525,-0.241406 -0.525,-0.535547 0,-0.294141 0.24141,-0.523828 0.53555,-0.523828 0.29414,0 0.52383,0.229687 0.52383,0.523828 m 1.48125,6.339844 c -0.11602,-0.304687 -0.13828,-0.440625 -0.14766,-0.860156 -0.82851,0.807422 -1.10273,0.976172 -1.63828,0.976172 -0.80742,0 -1.39453,-0.619922 -1.39453,-1.480078 0,-0.651563 0.32461,-1.123828 1.00664,-1.48125 0.31523,-0.15586 0.45117,-0.198047 1.23867,-0.440625 l 0.7875,-0.241407 c -0.0739,-0.660937 -0.44062,-1.00664 -1.08047,-1.00664 -0.4207,0 -0.85078,0.178125 -1.28086,0.523828 l -0.34687,-0.440625 c 0.49336,-0.440625 1.08164,-0.660938 1.78359,-0.660938 0.7043,0 1.26094,0.241406 1.56445,0.682031 0.22032,0.315235 0.25196,0.482813 0.25196,1.386329 v 1.448437 c 0,0.902344 0.0317,1.122657 0.22031,1.594922 z"
       style="fill:#006cb7;fill-opacity:1;fill-rule:nonzero;stroke:none;stroke-width:1.17187512"
       id="path136" /><path
       inkscape:connector-curvature="0"
       d="m 227.97397,52.383006 h 0.69258 v -1.207032 l 0.89297,-0.292969 v 1.500001 h 1.31132 v 0.525 h -1.31132 v 2.634375 c 0,1.018359 0.1664,1.323047 0.7125,1.323047 0.2414,0 0.45234,-0.05278 0.67148,-0.178125 l 0.22148,0.493359 c -0.35742,0.219141 -0.70429,0.314063 -1.09218,0.314063 -0.51328,0 -0.93399,-0.209766 -1.18594,-0.588281 -0.17813,-0.271875 -0.22031,-0.513282 -0.22031,-1.300782 v -2.697656 h -0.69258 z"
       style="fill:#006cb7;fill-opacity:1;fill-rule:nonzero;stroke:none;stroke-width:1.17187512"
       id="path140" /><path
       inkscape:connector-curvature="0"
       d="m 234.28194,53.170393 c -0.2625,-0.199219 -0.58711,-0.304687 -0.91289,-0.304687 -0.43008,0 -0.73477,0.232031 -0.73477,0.55664 0,0.261329 0.13711,0.430079 0.6082,0.766407 1.21758,0.870703 1.48125,1.196484 1.48125,1.846875 0,0.861328 -0.69375,1.458984 -1.68984,1.458984 -0.63047,0 -1.06055,-0.167578 -1.59609,-0.639843 l 0.45117,-0.49336 c 0.41015,0.366797 0.68203,0.503906 1.06055,0.503906 0.51445,0 0.85078,-0.283593 0.85078,-0.724218 0,-0.389063 -0.13711,-0.546094 -0.84024,-1.060547 -0.97617,-0.692579 -1.19648,-0.976172 -1.19648,-1.510547 0,-0.746485 0.68203,-1.303126 1.58437,-1.303126 0.49336,0 0.92344,0.147657 1.29141,0.441797 z"
       style="fill:#006cb7;fill-opacity:1;fill-rule:nonzero;stroke:none;stroke-width:1.17187512"
       id="path144" /><path
       inkscape:connector-curvature="0"
       d="m 238.42815,53.170393 c -0.2625,-0.199219 -0.58711,-0.304687 -0.91289,-0.304687 -0.43008,0 -0.73476,0.232031 -0.73476,0.55664 0,0.261329 0.13711,0.430079 0.6082,0.766407 1.21758,0.870703 1.48125,1.196484 1.48125,1.846875 0,0.861328 -0.69375,1.458984 -1.68984,1.458984 -0.63047,0 -1.06055,-0.167578 -1.5961,-0.639843 l 0.45117,-0.49336 c 0.41016,0.366797 0.68204,0.503906 1.06055,0.503906 0.51445,0 0.85078,-0.283593 0.85078,-0.724218 0,-0.389063 -0.13711,-0.546094 -0.84023,-1.060547 -0.97617,-0.692579 -1.19649,-0.976172 -1.19649,-1.510547 0,-0.746485 0.68204,-1.303126 1.58438,-1.303126 0.49336,0 0.92344,0.147657 1.29141,0.441797 z"
       style="fill:#006cb7;fill-opacity:1;fill-rule:nonzero;stroke:none;stroke-width:1.17187512"
       id="path148" /><path
       inkscape:connector-curvature="0"
       d="m 239.65722,52.383006 h 0.69257 v -1.207032 l 0.89297,-0.292969 v 1.500001 h 1.31133 v 0.525 h -1.31133 v 2.634375 c 0,1.018359 0.16641,1.323047 0.7125,1.323047 0.24141,0 0.45235,-0.05278 0.67149,-0.178125 l 0.22148,0.493359 c -0.35742,0.219141 -0.70429,0.314063 -1.09219,0.314063 -0.51328,0 -0.93398,-0.209766 -1.18593,-0.588281 -0.17813,-0.271875 -0.22032,-0.513282 -0.22032,-1.300782 v -2.697656 h -0.69257 z"
       style="fill:#006cb7;fill-opacity:1;fill-rule:nonzero;stroke:none;stroke-width:1.17187512"
       id="path152" /><path
       inkscape:connector-curvature="0"
       d="m 245.72378,54.597503 c -1.15313,0.325781 -1.56328,0.671484 -1.56328,1.333594 0,0.514453 0.30469,0.860156 0.75586,0.860156 0.44062,0 0.91289,-0.387891 1.14375,-0.923438 0.14648,-0.357422 0.20976,-0.724218 0.20976,-1.238672 v -0.178125 z m 0.6832,2.782031 c -0.11601,-0.304687 -0.13711,-0.440625 -0.14765,-0.860156 -0.82852,0.807422 -1.10157,0.976172 -1.63711,0.976172 -0.8086,0 -1.39571,-0.619922 -1.39571,-1.480078 0,-0.651563 0.32461,-1.123829 1.00782,-1.481251 0.31406,-0.155859 0.45,-0.199218 1.2375,-0.440625 l 0.7875,-0.241406 c -0.0727,-0.660937 -0.44063,-1.006641 -1.08047,-1.006641 -0.41953,0 -0.84961,0.178125 -1.28086,0.523829 l -0.34688,-0.440625 c 0.49336,-0.440625 1.08164,-0.660938 1.78477,-0.660938 0.7043,0 1.25976,0.241406 1.56445,0.682031 0.21914,0.315235 0.25196,0.482813 0.25196,1.385157 v 1.449609 c 0,0.902344 0.0305,1.122657 0.21914,1.594922 z"
       style="fill:#006cb7;fill-opacity:1;fill-rule:nonzero;stroke:none;stroke-width:1.17187512"
       id="path156" /><path
       inkscape:connector-curvature="0"
       d="m 249.4603,54.787459 c 0,1.258594 0.58828,2.077735 1.49062,2.077735 0.93399,0 1.56329,-0.839063 1.56329,-2.077735 0,-1.123828 -0.61875,-1.889063 -1.5211,-1.889063 -0.96562,0 -1.53281,0.701953 -1.53281,1.889063 m 3.91523,-4.755469 v 7.347657 h -0.8707 v -0.7875 c -0.50391,0.61875 -1.05,0.903515 -1.75195,0.903515 -1.32305,0 -2.25703,-1.072265 -2.25703,-2.603906 0,-1.522266 1.01718,-2.623829 2.41289,-2.623829 0.70429,0 1.16484,0.209766 1.59609,0.745313 v -2.98125 z"
       style="fill:#006cb7;fill-opacity:1;fill-rule:nonzero;stroke:none;stroke-width:1.17187512"
       id="path160" /><path
       inkscape:connector-curvature="0"
       d="m 254.53112,52.383006 h 0.69258 v -1.207032 l 0.89297,-0.292969 v 1.500001 h 1.31133 v 0.525 h -1.31133 v 2.634375 c 0,1.018359 0.16641,1.323047 0.7125,1.323047 0.24141,0 0.45234,-0.05278 0.67149,-0.178125 l 0.22148,0.493359 c -0.35742,0.219141 -0.7043,0.314063 -1.09219,0.314063 -0.51328,0 -0.93398,-0.209766 -1.18594,-0.588281 -0.17812,-0.271875 -0.22031,-0.513282 -0.22031,-1.300782 v -2.697656 h -0.69258 z"
       style="fill:#006cb7;fill-opacity:1;fill-rule:nonzero;stroke:none;stroke-width:1.17187512"
       id="path164" /><path
       inkscape:connector-curvature="0"
       d="m 161.42541,68.100429 c 0.71719,0 1.03946,-0.09141 1.31368,-0.351562 0.26132,-0.244922 0.41367,-0.672657 0.41367,-1.100391 0,-0.488672 -0.18399,-0.88711 -0.48867,-1.101563 -0.24493,-0.152344 -0.58125,-0.213281 -1.20938,-0.213281 h -0.58008 v 2.766797 z m -3.6082,-4.55625 h 3.95977 c 1.72617,0 2.46093,0.138281 3.10312,0.58125 0.7336,0.505078 1.14727,1.346484 1.14727,2.325 0,1.252734 -0.61289,2.170313 -1.88086,2.8125 l 2.41523,4.326563 -3.1957,0.336328 -1.69688,-4.204688 h -0.79453 v 4.020704 h -3.05742 z"
       style="fill:#006cb7;fill-opacity:1;fill-rule:nonzero;stroke:none;stroke-width:1.17187512"
       id="path168" /><path
       inkscape:connector-curvature="0"
       d="m 170.83932,68.635976 c 0,2.110547 0.61055,3.15 1.86445,3.15 1.23868,0 1.86563,-1.055859 1.86563,-3.104297 0,-2.15625 -0.61172,-3.195703 -1.86563,-3.195703 -1.23867,0 -1.86445,1.039453 -1.86445,3.15 m 6.92461,-0.04575 c 0,3.11836 -2.09414,5.320313 -5.04492,5.320313 -2.96602,0 -5.07539,-2.201953 -5.07539,-5.289844 0,-3.073829 2.17148,-5.259376 5.19844,-5.259376 2.8125,0 4.92187,2.23125 4.92187,5.228907"
       style="fill:#006cb7;fill-opacity:1;fill-rule:nonzero;stroke:none;stroke-width:1.17187512"
       id="path172" /><path
       inkscape:connector-curvature="0"
       d="m 185.05182,65.669613 c -0.56484,-0.274219 -0.96211,-0.382031 -1.40625,-0.382031 -0.58008,0 -0.96211,0.244922 -0.96211,0.642187 0,0.321094 0.16758,0.520313 1.05469,1.284376 0.91641,0.779297 1.20703,1.039453 1.55859,1.421484 0.64219,0.672656 0.97852,1.467188 0.97852,2.262891 0,1.804688 -1.575,3.011719 -3.9293,3.011719 -1.22343,0 -2.21601,-0.290625 -3.21093,-0.932813 l 0.93281,-1.696875 c 0.56601,0.459375 1.23867,0.71836 1.85039,0.71836 0.70312,0 1.16133,-0.397266 1.16133,-0.992578 0,-0.596485 -0.25899,-0.932813 -1.45196,-1.927735 -0.71836,-0.610547 -0.99375,-0.870703 -1.29961,-1.191797 -0.48867,-0.534375 -0.71836,-1.13086 -0.71836,-1.81875 0,-1.605469 1.43672,-2.691797 3.57774,-2.691797 0.93281,0 1.80352,0.214453 2.67539,0.672656 z"
       style="fill:#006cb7;fill-opacity:1;fill-rule:nonzero;stroke:none;stroke-width:1.17187512"
       id="path176" /><path
       inkscape:connector-curvature="0"
       d="m 190.12499,65.486566 h -2.93555 v -1.941797 h 8.95899 v 1.941797 h -2.96719 v 8.255861 h -3.05625 z"
       style="fill:#006cb7;fill-opacity:1;fill-rule:nonzero;stroke:none;stroke-width:1.17187512"
       id="path180" /><path
       inkscape:connector-curvature="0"
       d="m 200.05839,68.635976 c 0,2.110547 0.61054,3.15 1.86445,3.15 1.23867,0 1.86563,-1.055859 1.86563,-3.104297 0,-2.15625 -0.61172,-3.195703 -1.86563,-3.195703 -1.23867,0 -1.86445,1.039453 -1.86445,3.15 m 6.92461,-0.04575 c 0,3.11836 -2.09414,5.320313 -5.04493,5.320313 -2.96601,0 -5.07539,-2.201953 -5.07539,-5.289844 0,-3.073829 2.17149,-5.259376 5.19844,-5.259376 2.8125,0 4.92188,2.23125 4.92188,5.228907"
       style="fill:#006cb7;fill-opacity:1;fill-rule:nonzero;stroke:none;stroke-width:1.17187512"
       id="path184" /><path
       inkscape:connector-curvature="0"
       d="m 216.45889,65.731488 c -0.58125,-0.16875 -0.97851,-0.229687 -1.43789,-0.229687 -1.97109,0 -3.20977,1.2375 -3.20977,3.180469 0,1.955859 1.20704,3.103125 3.25665,3.103125 0.53554,0 0.99375,-0.06094 1.59023,-0.228516 l 0.56484,1.911329 c -0.79453,0.289453 -1.6664,0.441797 -2.55234,0.441797 -3.45586,0 -6.05391,-2.29336 -6.05391,-5.350782 0,-3.011719 2.44571,-5.183204 5.88516,-5.183204 0.96328,0 1.74258,0.138282 2.72109,0.505078 z"
       style="fill:#006cb7;fill-opacity:1;fill-rule:nonzero;stroke:none;stroke-width:1.17187512"
       id="path188" /><path
       inkscape:connector-curvature="0"
       d="m 219.00644,63.544535 h 3.05742 v 4.204688 l 2.59922,-4.341798 2.64609,0.535547 -2.64609,4.066407 3.59414,5.335547 -3.18047,0.550782 -3.01289,-5.10586 v 4.952344 h -3.05742 z"
       style="fill:#006cb7;fill-opacity:1;fill-rule:nonzero;stroke:none;stroke-width:1.17187512"
       id="path192" /></g></svg>